<?xml version="1.0" encoding="UTF-8" standalone="no"?>
<svg
   width="512"
   height="408"
   version="1.1"
   id="svg7"
   sodipodi:docname="bootstrap-logo.svg"
   inkscape:version="1.3.1 (9b9bdc1480, 2023-11-25, custom)"
   xmlns:inkscape="http://www.inkscape.org/namespaces/inkscape"
   xmlns:sodipodi="http://sodipodi.sourceforge.net/DTD/sodipodi-0.dtd"
   xmlns="http://www.w3.org/2000/svg"
   xmlns:svg="http://www.w3.org/2000/svg">
  <sodipodi:namedview
     id="namedview7"
     pagecolor="#ffffff"
     bordercolor="#000000"
     borderopacity="0.25"
     inkscape:showpageshadow="2"
     inkscape:pageopacity="0.0"
     inkscape:pagecheckerboard="0"
     inkscape:deskcolor="#d1d1d1"
     showgrid="false"
     inkscape:zoom="0.62890625"
     inkscape:cx="265.54037"
     inkscape:cy="203.52795"
     inkscape:window-width="1210"
     inkscape:window-height="960"
     inkscape:window-x="70"
     inkscape:window-y="27"
     inkscape:window-maximized="1"
     inkscape:current-layer="svg7" />
  <defs
     id="defs6">
    <linearGradient
       id="bs-logo-a"
       x1="76.079"
       x2="523.48"
       y1="10.798"
       y2="365.945"
       gradientUnits="userSpaceOnUse">
      <stop
         stop-color="#9013fe"
         id="stop1" />
      <stop
         offset="1"
         stop-color="#6610f2"
         id="stop2" />
    </linearGradient>
    <linearGradient
       id="bs-logo-b"
       x1="193.508"
       x2="293.514"
       y1="109.74"
       y2="278.872"
       gradientUnits="userSpaceOnUse">
      <stop
         stop-color="#fff"
         id="stop3" />
      <stop
         offset="1"
         stop-color="#f1e5fc"
         id="stop4" />
    </linearGradient>
    <filter
       id="bs-logo-c"
       width="197"
       height="249"
       x="161.901"
       y="83.457"
       color-interpolation-filters="sRGB"
       filterUnits="userSpaceOnUse">
      <feFlood
         flood-opacity="0"
         result="BackgroundImageFix"
         id="feFlood4" />
      <feColorMatrix
         in="SourceAlpha"
         values="0 0 0 0 0 0 0 0 0 0 0 0 0 0 0 0 0 0 127 0"
         id="feColorMatrix4" />
      <feOffset
         dy="4"
         id="feOffset4" />
      <feGaussianBlur
         stdDeviation="8"
         id="feGaussianBlur4" />
      <feColorMatrix
         values="0 0 0 0 0 0 0 0 0 0 0 0 0 0 0 0 0 0 0.15 0"
         id="feColorMatrix5" />
      <feBlend
         in2="BackgroundImageFix"
         result="effect1_dropShadow"
         id="feBlend5" />
      <feBlend
         in="SourceGraphic"
         in2="effect1_dropShadow"
         result="shape"
         id="feBlend6" />
    </filter>
  </defs>
  <path
     fill="url(#bs-logo-a)"
     d="M 56.481,53.32 C 55.515,25.58 77.128,0 106.342,0 h 299.353 c 29.214,0 50.827,25.58 49.861,53.32 -0.928,26.647 0.277,61.165 8.964,89.31 8.715,28.232 23.411,46.077 47.48,48.37 v 26 c -24.069,2.293 -38.765,20.138 -47.48,48.37 -8.687,28.145 -9.892,62.663 -8.964,89.311 C 456.522,382.42 434.909,408 405.695,408 H 106.342 C 77.128,408 55.515,382.42 56.482,354.681 57.409,328.033 56.204,293.515 47.516,265.37 38.802,237.138 24.07,219.293 0,217 v -26 c 24.069,-2.293 38.802,-20.138 47.516,-48.37 8.688,-28.145 9.893,-62.663 8.965,-89.31 z"
     id="path6"
     style="fill:url(#bs-logo-a)" />
  <path
     d="m 116.40062,65.050593 h 65.51753 L 259.37009,247.72027 337.06559,65.050593 H 402.096 V 337.83731 H 357.03748 V 107.91708 L 281.77757,285.472 H 236.96261 L 161.45914,107.91708 v 229.92023 h -45.05852 z"
     id="text2"
     style="font-size:498.81px;font-family:Timmana;-inkscape-font-specification:Timmana;fill:#ffffff;stroke-width:1.55878"
     transform="scale(0.98747028,1.0126887)"
     aria-label="м" />
</svg>
